<svg width="248" height="65" viewBox="0 0 248 65" fill="none" xmlns="http://www.w3.org/2000/svg">
<path d="M53.4055 41.4515L55.4062 9.839L34.2768 0L53.4055 41.4515Z" fill="#D61EA1"/>
<path d="M27.7032 59.0141L42.157 50.7156L39.2172 43.5467H16.189L13.2492 50.7156L27.7032 59.0141Z" fill="#D61EA1"/>
<path d="M35.277 34.2623L27.7032 15.7343L20.1292 34.2623H35.277Z" fill="#D61EA1"/>
<path d="M0 9.839L1.98021 41.4515L21.1294 0L0 9.839Z" fill="#D61EA1"/>
<path fill-rule="evenodd" clip-rule="evenodd" d="M67.3477 48H75.082L78.39 38.1367H93.4282L96.7422 48H104.477L90.375 8H81.4297L67.3477 48ZM91.4726 32.3164L86.0586 16.2031H85.7461L80.342 32.3164H91.4726Z" fill="url(#paint0_linear_492_1235)"/>
<path d="M200.255 8V48H193.185V8H200.255Z" fill="url(#paint1_linear_492_1235)"/>
<path d="M112.103 48V30.4219C112.103 28.9766 112.37 27.7461 112.904 26.7305C113.451 25.7148 114.199 24.9401 115.15 24.4062C116.113 23.8594 117.214 23.5859 118.451 23.5859C120.274 23.5859 121.699 24.1523 122.728 25.2852C123.77 26.418 124.29 27.987 124.29 29.9922V48H131.361V28.8984C131.374 26.5026 130.951 24.4648 130.091 22.7852C129.245 21.1055 128.047 19.8229 126.497 18.9375C124.961 18.0521 123.158 17.6094 121.087 17.6094C118.848 17.6094 116.966 18.1042 115.443 19.0938C113.932 20.0833 112.832 21.418 112.142 23.0977H111.79V18H105.033V48H112.103Z" fill="url(#paint2_linear_492_1235)"/>
<path fill-rule="evenodd" clip-rule="evenodd" d="M147.195 59.875C144.656 59.875 142.475 59.5299 140.652 58.8398C138.829 58.1628 137.364 57.2513 136.258 56.1055C135.151 54.9596 134.383 53.6901 133.953 52.2969L140.32 50.7539C140.607 51.3398 141.023 51.9193 141.57 52.4922C142.117 53.0781 142.853 53.5599 143.777 53.9375C144.715 54.3281 145.893 54.5234 147.312 54.5234C149.318 54.5234 150.978 54.0352 152.293 53.0586C153.608 52.0951 154.265 50.5065 154.265 48.293V42.6094H153.914C153.549 43.3385 153.015 44.0872 152.312 44.8555C151.622 45.6237 150.704 46.2682 149.558 46.7891C148.426 47.3099 147 47.5703 145.281 47.5703C142.976 47.5703 140.887 47.0299 139.012 45.9492C137.15 44.8555 135.665 43.2279 134.558 41.0664C133.465 38.8919 132.918 36.1706 132.918 32.9023C132.918 29.6081 133.465 26.8281 134.558 24.5625C135.665 22.2839 137.156 20.5586 139.031 19.3867C140.906 18.2018 142.996 17.6094 145.301 17.6094C147.058 17.6094 148.504 17.9089 149.637 18.5078C150.782 19.0938 151.694 19.8034 152.371 20.6367C153.048 21.457 153.562 22.2318 153.914 22.9609H154.304V18H161.277V48.4883C161.277 51.0534 160.665 53.1758 159.441 54.8555C158.217 56.5352 156.544 57.7917 154.422 58.625C152.299 59.4583 149.89 59.875 147.195 59.875ZM147.254 42.0234C148.751 42.0234 150.027 41.6589 151.082 40.9297C152.137 40.2005 152.937 39.1523 153.484 37.7852C154.031 36.418 154.304 34.7773 154.304 32.8633C154.304 30.9753 154.031 29.3216 153.484 27.9023C152.95 26.4831 152.156 25.3828 151.101 24.6016C150.06 23.8073 148.777 23.4102 147.254 23.4102C145.678 23.4102 144.363 23.8203 143.308 24.6406C142.254 25.4609 141.459 26.5872 140.926 28.0195C140.392 29.4388 140.125 31.0534 140.125 32.8633C140.125 34.6992 140.392 36.3073 140.926 37.6875C141.472 39.0547 142.273 40.1224 143.328 40.8906C144.396 41.6458 145.704 42.0234 147.254 42.0234Z" fill="url(#paint3_linear_492_1235)"/>
<path d="M183.244 35.3828V18H190.315V48H183.459V42.668H183.147C182.47 44.3477 181.356 45.7214 179.807 46.7891C178.27 47.8568 176.376 48.3906 174.123 48.3906C172.157 48.3906 170.419 47.9544 168.908 47.082C167.411 46.1966 166.239 44.9141 165.393 43.2344C164.546 41.5417 164.123 39.4974 164.123 37.1016V18H171.194V36.0078C171.194 37.9089 171.714 39.4193 172.756 40.5391C173.798 41.6589 175.165 42.2188 176.858 42.2188C177.899 42.2188 178.908 41.9648 179.885 41.457C180.862 40.9492 181.662 40.194 182.287 39.1914C182.925 38.1758 183.244 36.9062 183.244 35.3828Z" fill="url(#paint4_linear_492_1235)"/>
<path fill-rule="evenodd" clip-rule="evenodd" d="M206.622 47.5898C208.146 48.2669 209.858 48.6055 211.759 48.6055C213.321 48.6055 214.682 48.3906 215.841 47.9609C217.013 47.5182 217.983 46.9388 218.751 46.2227C219.532 45.4935 220.138 44.7122 220.567 43.8789H220.802V48H227.599V27.9219C227.599 25.9297 227.234 24.2695 226.505 22.9414C225.789 21.6133 224.838 20.5651 223.653 19.7969C222.468 19.0156 221.16 18.4557 219.728 18.1172C218.295 17.7786 216.856 17.6094 215.411 17.6094C213.315 17.6094 211.401 17.9219 209.669 18.5469C207.937 19.1589 206.472 20.0833 205.274 21.3203C204.076 22.5443 203.217 24.0677 202.696 25.8906L209.298 26.8281C209.649 25.7995 210.326 24.9076 211.329 24.1523C212.345 23.3971 213.718 23.0195 215.45 23.0195C217.091 23.0195 218.347 23.4232 219.22 24.2305C220.092 25.0378 220.528 26.1771 220.528 27.6484V27.7656C220.528 28.4427 220.274 28.944 219.767 29.2695C219.272 29.582 218.478 29.8164 217.384 29.9727C216.29 30.1159 214.864 30.2786 213.106 30.4609C211.648 30.6172 210.235 30.8711 208.868 31.2227C207.514 31.5612 206.297 32.0625 205.216 32.7266C204.135 33.3906 203.282 34.276 202.657 35.3828C202.032 36.4896 201.72 37.8893 201.72 39.582C201.72 41.5482 202.156 43.2018 203.028 44.543C203.914 45.8841 205.112 46.8997 206.622 47.5898ZM217.286 42.5703C216.244 43.1302 215.014 43.4102 213.595 43.4102C212.123 43.4102 210.912 43.0781 209.962 42.4141C209.011 41.75 208.536 40.7669 208.536 39.4648C208.536 38.5534 208.777 37.8112 209.259 37.2383C209.741 36.6523 210.398 36.1966 211.231 35.8711C212.065 35.5456 213.009 35.3112 214.063 35.168C214.532 35.1029 215.086 35.0247 215.724 34.9336C216.362 34.8424 217.006 34.7383 217.657 34.6211C218.308 34.5039 218.894 34.3672 219.415 34.2109C219.949 34.0547 220.326 33.8854 220.548 33.7031V37.2383C220.548 38.3451 220.261 39.3672 219.688 40.3047C219.129 41.2422 218.328 41.9974 217.286 42.5703Z" fill="url(#paint5_linear_492_1235)"/>
<path d="M230.308 18V48H237.378V30.3633C237.378 29.0872 237.671 27.9609 238.257 26.9844C238.843 26.0078 239.644 25.2461 240.66 24.6992C241.688 24.1393 242.847 23.8594 244.136 23.8594C244.735 23.8594 245.354 23.9049 245.992 23.9961C246.643 24.0742 247.118 24.1654 247.417 24.2695V17.7656C247.092 17.7005 246.682 17.6549 246.187 17.6289C245.705 17.5898 245.269 17.5703 244.878 17.5703C243.16 17.5703 241.63 18.0456 240.288 18.9961C238.96 19.9336 238.023 21.2682 237.476 23H237.163V18H230.308Z" fill="url(#paint6_linear_492_1235)"/>
<path fill-rule="evenodd" clip-rule="evenodd" d="M164.219 48.6364V61H166.369V59.5391H166.495C166.612 59.7644 166.775 60.0039 166.984 60.2575C167.198 60.507 167.479 60.7203 167.83 60.8974C168.18 61.0745 168.62 61.163 169.152 61.163C169.88 61.163 170.532 60.9759 171.108 60.6016C171.683 60.2273 172.138 59.684 172.472 58.9716C172.806 58.2592 172.973 57.3939 172.973 56.3757C172.973 55.3454 172.802 54.4761 172.46 53.7678C172.122 53.0554 171.663 52.5181 171.083 52.1559C170.508 51.7897 169.862 51.6065 169.146 51.6065C168.602 51.6065 168.156 51.6991 167.805 51.8842C167.455 52.0653 167.178 52.2847 166.972 52.5423C166.767 52.7958 166.608 53.0353 166.495 53.2607H166.405V48.6364H164.219ZM166.616 57.9393C166.447 57.4885 166.363 56.9633 166.363 56.3636C166.363 55.764 166.445 55.2428 166.61 54.8001C166.779 54.3574 167.027 54.0133 167.353 53.7678C167.679 53.5223 168.075 53.3995 168.542 53.3995C169.029 53.3995 169.435 53.5263 169.761 53.7798C170.087 54.0334 170.333 54.3835 170.498 54.8303C170.663 55.277 170.745 55.7881 170.745 56.3636C170.745 56.9432 170.661 57.4604 170.492 57.9151C170.327 58.3659 170.081 58.7221 169.755 58.9837C169.429 59.2412 169.025 59.37 168.542 59.37C168.079 59.37 167.685 59.2453 167.359 58.9957C167.037 58.7422 166.789 58.39 166.616 57.9393Z" fill="url(#paint7_linear_492_1235)"/>
<path fill-rule="evenodd" clip-rule="evenodd" d="M175.331 60.5835C175.995 60.9819 176.78 61.1811 177.686 61.1811C178.591 61.1811 179.376 60.9819 180.04 60.5835C180.704 60.185 181.217 59.6276 181.579 58.9112C181.946 58.1948 182.129 57.3577 182.129 56.3999C182.129 55.442 181.946 54.6029 181.579 53.8825C181.217 53.1621 180.704 52.6026 180.04 52.2042C179.376 51.8058 178.591 51.6065 177.686 51.6065C176.78 51.6065 175.995 51.8058 175.331 52.2042C174.667 52.6026 174.152 53.1621 173.786 53.8825C173.424 54.6029 173.242 55.442 173.242 56.3999C173.242 57.3577 173.424 58.1948 173.786 58.9112C174.152 59.6276 174.667 60.185 175.331 60.5835ZM178.929 59.0259C178.599 59.2956 178.189 59.4304 177.698 59.4304C177.195 59.4304 176.776 59.2956 176.442 59.0259C176.112 58.7523 175.864 58.386 175.699 57.9272C175.538 57.4684 175.458 56.9573 175.458 56.3938C175.458 55.8264 175.538 55.3132 175.699 54.8544C175.864 54.3916 176.112 54.0233 176.442 53.7496C176.776 53.476 177.195 53.3391 177.698 53.3391C178.189 53.3391 178.599 53.476 178.929 53.7496C179.259 54.0233 179.505 54.3916 179.666 54.8544C179.831 55.3132 179.913 55.8264 179.913 56.3938C179.913 56.9573 179.831 57.4684 179.666 57.9272C179.505 58.386 179.259 58.7523 178.929 59.0259Z" fill="url(#paint8_linear_492_1235)"/>
<path fill-rule="evenodd" clip-rule="evenodd" d="M184.484 60.5835C185.148 60.9819 185.933 61.1811 186.838 61.1811C187.744 61.1811 188.529 60.9819 189.193 60.5835C189.857 60.185 190.37 59.6276 190.732 58.9112C191.098 58.1948 191.282 57.3577 191.282 56.3999C191.282 55.442 191.098 54.6029 190.732 53.8825C190.37 53.1621 189.857 52.6026 189.193 52.2042C188.529 51.8058 187.744 51.6065 186.838 51.6065C185.933 51.6065 185.148 51.8058 184.484 52.2042C183.82 52.6026 183.305 53.1621 182.939 53.8825C182.576 54.6029 182.395 55.442 182.395 56.3999C182.395 57.3577 182.576 58.1948 182.939 58.9112C183.305 59.6276 183.82 60.185 184.484 60.5835ZM188.082 59.0259C187.752 59.2956 187.341 59.4304 186.85 59.4304C186.347 59.4304 185.929 59.2956 185.595 59.0259C185.265 58.7523 185.017 58.386 184.852 57.9272C184.691 57.4684 184.611 56.9573 184.611 56.3938C184.611 55.8264 184.691 55.3132 184.852 54.8544C185.017 54.3916 185.265 54.0233 185.595 53.7496C185.929 53.476 186.347 53.3391 186.85 53.3391C187.341 53.3391 187.752 53.476 188.082 53.7496C188.412 54.0233 188.658 54.3916 188.819 54.8544C188.984 55.3132 189.066 55.8264 189.066 56.3938C189.066 56.9573 188.984 57.4684 188.819 57.9272C188.658 58.386 188.412 58.7523 188.082 59.0259Z" fill="url(#paint9_linear_492_1235)"/>
<path d="M194.748 49.5057H192.562V51.7273H191.246V53.4176H192.562V58.5732C192.558 59.1527 192.683 59.6357 192.936 60.022C193.194 60.4084 193.542 60.6941 193.981 60.8793C194.42 61.0604 194.913 61.1429 195.46 61.1268C195.77 61.1187 196.031 61.0906 196.245 61.0423C196.462 60.994 196.629 60.9497 196.746 60.9095L196.378 59.201C196.317 59.2171 196.229 59.2352 196.112 59.2553C195.999 59.2755 195.874 59.2855 195.738 59.2855C195.557 59.2855 195.392 59.2573 195.243 59.201C195.094 59.1447 194.973 59.04 194.88 58.8871C194.792 58.7301 194.748 58.5047 194.748 58.2109V53.4176H196.577V51.7273H194.748V49.5057Z" fill="url(#paint10_linear_492_1235)"/>
<path d="M198.775 60.5714C199.439 60.9779 200.234 61.1811 201.16 61.1811C201.936 61.1811 202.612 61.0402 203.188 60.7585C203.764 60.4728 204.218 60.0784 204.552 59.5753C204.886 59.0682 205.08 58.4866 205.132 57.8306H203.043C202.979 58.1647 202.86 58.4484 202.687 58.6818C202.514 58.9153 202.299 59.0943 202.041 59.2191C201.787 59.3398 201.5 59.4002 201.178 59.4002C200.723 59.4002 200.326 59.2795 199.988 59.038C199.654 58.7925 199.395 58.4444 199.21 57.9936C199.025 57.5388 198.932 56.9955 198.932 56.3636C198.932 55.7398 199.025 55.2045 199.21 54.7578C199.399 54.3111 199.662 53.969 200 53.7315C200.339 53.4901 200.731 53.3693 201.178 53.3693C201.705 53.3693 202.125 53.5202 202.439 53.8221C202.757 54.1199 202.959 54.4922 203.043 54.9389H205.132C205.084 54.2708 204.886 53.6873 204.54 53.1882C204.194 52.6851 203.729 52.2968 203.146 52.0231C202.566 51.7454 201.9 51.6065 201.147 51.6065C200.242 51.6065 199.457 51.8098 198.793 52.2163C198.133 52.6187 197.622 53.1822 197.26 53.9066C196.897 54.627 196.716 55.4581 196.716 56.3999C196.716 57.3376 196.893 58.1667 197.248 58.8871C197.606 59.6035 198.115 60.1649 198.775 60.5714Z" fill="url(#paint11_linear_492_1235)"/>
<path fill-rule="evenodd" clip-rule="evenodd" d="M206.817 60.8732C207.288 61.0825 207.817 61.1871 208.405 61.1871C208.888 61.1871 209.308 61.1207 209.666 60.9879C210.029 60.8511 210.328 60.672 210.566 60.4506C210.807 60.2253 210.995 59.9838 211.127 59.7262H211.2V61H213.301V54.794C213.301 54.1783 213.188 53.6651 212.963 53.2546C212.741 52.8441 212.447 52.5201 212.081 52.2827C211.715 52.0412 211.31 51.8681 210.868 51.7635C210.425 51.6589 209.98 51.6065 209.534 51.6065C208.886 51.6065 208.294 51.7031 207.759 51.8963C207.223 52.0855 206.771 52.3712 206.4 52.7536C206.03 53.1319 205.765 53.6028 205.604 54.1662L207.644 54.456C207.753 54.138 207.962 53.8623 208.272 53.6289C208.586 53.3955 209.01 53.2788 209.546 53.2788C210.053 53.2788 210.441 53.4035 210.711 53.6531C210.98 53.9026 211.115 54.2547 211.115 54.7095V54.7457C211.115 54.955 211.037 55.11 210.88 55.2106C210.727 55.3072 210.481 55.3796 210.143 55.4279C209.805 55.4722 209.365 55.5225 208.821 55.5788C208.37 55.6271 207.934 55.7056 207.511 55.8143C207.093 55.9189 206.716 56.0739 206.382 56.2791C206.048 56.4844 205.785 56.7581 205.591 57.1001C205.398 57.4422 205.302 57.8749 205.302 58.3981C205.302 59.0058 205.437 59.5169 205.706 59.9315C205.98 60.346 206.35 60.6599 206.817 60.8732ZM210.113 59.3217C209.791 59.4948 209.411 59.5813 208.972 59.5813C208.517 59.5813 208.143 59.4787 207.849 59.2734C207.555 59.0682 207.409 58.7643 207.409 58.3619C207.409 58.0801 207.483 57.8507 207.632 57.6737C207.781 57.4925 207.984 57.3517 208.242 57.2511C208.499 57.1505 208.791 57.078 209.117 57.0337L209.345 57.0019L209.63 56.9613C209.827 56.9331 210.027 56.9009 210.228 56.8647C210.429 56.8285 210.61 56.7862 210.771 56.7379C210.936 56.6896 211.053 56.6373 211.121 56.581V57.6737C211.121 58.0157 211.033 58.3317 210.856 58.6215C210.683 58.9112 210.435 59.1447 210.113 59.3217Z" fill="url(#paint12_linear_492_1235)"/>
<path d="M216.397 51.7273H214.308V61H216.493V55.3615C216.493 54.9792 216.57 54.6451 216.723 54.3594C216.876 54.0696 217.081 53.8462 217.339 53.6893C217.596 53.5283 217.882 53.4478 218.196 53.4478C218.659 53.4478 219.033 53.5907 219.319 53.8764C219.609 54.1622 219.753 54.5445 219.753 55.0234V61H221.896V55.2166C221.896 54.6934 222.043 54.2688 222.337 53.9428C222.635 53.6128 223.048 53.4478 223.575 53.4478C224.017 53.4478 224.392 53.5826 224.698 53.8523C225.004 54.1179 225.156 54.5385 225.156 55.114V61H227.348V54.7759C227.348 53.7416 227.078 52.9548 226.539 52.4155C226 51.8762 225.303 51.6065 224.45 51.6065C223.778 51.6065 223.196 51.7615 222.705 52.0714C222.218 52.3773 221.872 52.7878 221.667 53.3029H221.57C221.393 52.7797 221.088 52.3672 220.653 52.0653C220.222 51.7595 219.693 51.6065 219.065 51.6065C218.445 51.6065 217.912 51.7575 217.465 52.0593C217.019 52.3571 216.699 52.7717 216.506 53.3029H216.397V51.7273Z" fill="url(#paint13_linear_492_1235)"/>
<path fill-rule="evenodd" clip-rule="evenodd" d="M228.375 51.7273V64.4773H230.56V59.5391H230.651C230.768 59.7644 230.931 60.0039 231.14 60.2575C231.353 60.507 231.635 60.7203 231.985 60.8974C232.335 61.0745 232.776 61.163 233.307 61.163C234.036 61.163 234.688 60.9759 235.263 60.6016C235.839 60.2273 236.293 59.684 236.627 58.9716C236.961 58.2592 237.128 57.3939 237.128 56.3757C237.128 55.3454 236.957 54.4761 236.615 53.7678C236.277 53.0554 235.818 52.5181 235.239 52.1559C234.663 51.7897 234.017 51.6065 233.301 51.6065C232.758 51.6065 232.311 51.6991 231.961 51.8842C231.611 52.0653 231.333 52.2847 231.128 52.5423C230.922 52.7958 230.764 53.0353 230.651 53.2607H230.524V51.7273H228.375ZM230.772 57.9393C230.603 57.4885 230.518 56.9633 230.518 56.3636C230.518 55.764 230.601 55.2428 230.766 54.8001C230.935 54.3574 231.182 54.0133 231.508 53.7678C231.834 53.5223 232.23 53.3995 232.697 53.3995C233.184 53.3995 233.591 53.5263 233.917 53.7798C234.243 54.0334 234.488 54.3835 234.653 54.8303C234.818 55.277 234.901 55.7881 234.901 56.3636C234.901 56.9432 234.816 57.4604 234.647 57.9151C234.482 58.3659 234.237 58.7221 233.911 58.9837C233.585 59.2412 233.18 59.37 232.697 59.37C232.235 59.37 231.84 59.2453 231.514 58.9957C231.192 58.7422 230.945 58.39 230.772 57.9393Z" fill="url(#paint14_linear_492_1235)"/>
<defs>
<linearGradient id="paint0_linear_492_1235" x1="0" y1="51.7976" x2="247.417" y2="51.7976" gradientUnits="userSpaceOnUse">
<stop stop-color="#F0070C"/>
<stop offset="0.526" stop-color="#CC26D5"/>
<stop offset="1" stop-color="#7702FF"/>
</linearGradient>
<linearGradient id="paint1_linear_492_1235" x1="0" y1="51.7976" x2="247.417" y2="51.7976" gradientUnits="userSpaceOnUse">
<stop stop-color="#F0070C"/>
<stop offset="0.526" stop-color="#CC26D5"/>
<stop offset="1" stop-color="#7702FF"/>
</linearGradient>
<linearGradient id="paint2_linear_492_1235" x1="0" y1="51.7976" x2="247.417" y2="51.7976" gradientUnits="userSpaceOnUse">
<stop stop-color="#F0070C"/>
<stop offset="0.526" stop-color="#CC26D5"/>
<stop offset="1" stop-color="#7702FF"/>
</linearGradient>
<linearGradient id="paint3_linear_492_1235" x1="0" y1="51.7976" x2="247.417" y2="51.7976" gradientUnits="userSpaceOnUse">
<stop stop-color="#F0070C"/>
<stop offset="0.526" stop-color="#CC26D5"/>
<stop offset="1" stop-color="#7702FF"/>
</linearGradient>
<linearGradient id="paint4_linear_492_1235" x1="0" y1="51.7976" x2="247.417" y2="51.7976" gradientUnits="userSpaceOnUse">
<stop stop-color="#F0070C"/>
<stop offset="0.526" stop-color="#CC26D5"/>
<stop offset="1" stop-color="#7702FF"/>
</linearGradient>
<linearGradient id="paint5_linear_492_1235" x1="0" y1="51.7976" x2="247.417" y2="51.7976" gradientUnits="userSpaceOnUse">
<stop stop-color="#F0070C"/>
<stop offset="0.526" stop-color="#CC26D5"/>
<stop offset="1" stop-color="#7702FF"/>
</linearGradient>
<linearGradient id="paint6_linear_492_1235" x1="0" y1="51.7976" x2="247.417" y2="51.7976" gradientUnits="userSpaceOnUse">
<stop stop-color="#F0070C"/>
<stop offset="0.526" stop-color="#CC26D5"/>
<stop offset="1" stop-color="#7702FF"/>
</linearGradient>
<linearGradient id="paint7_linear_492_1235" x1="0" y1="51.7976" x2="247.417" y2="51.7976" gradientUnits="userSpaceOnUse">
<stop stop-color="#F0070C"/>
<stop offset="0.526" stop-color="#CC26D5"/>
<stop offset="1" stop-color="#7702FF"/>
</linearGradient>
<linearGradient id="paint8_linear_492_1235" x1="0" y1="51.7976" x2="247.417" y2="51.7976" gradientUnits="userSpaceOnUse">
<stop stop-color="#F0070C"/>
<stop offset="0.526" stop-color="#CC26D5"/>
<stop offset="1" stop-color="#7702FF"/>
</linearGradient>
<linearGradient id="paint9_linear_492_1235" x1="0" y1="51.7976" x2="247.417" y2="51.7976" gradientUnits="userSpaceOnUse">
<stop stop-color="#F0070C"/>
<stop offset="0.526" stop-color="#CC26D5"/>
<stop offset="1" stop-color="#7702FF"/>
</linearGradient>
<linearGradient id="paint10_linear_492_1235" x1="0" y1="51.7976" x2="247.417" y2="51.7976" gradientUnits="userSpaceOnUse">
<stop stop-color="#F0070C"/>
<stop offset="0.526" stop-color="#CC26D5"/>
<stop offset="1" stop-color="#7702FF"/>
</linearGradient>
<linearGradient id="paint11_linear_492_1235" x1="0" y1="51.7976" x2="247.417" y2="51.7976" gradientUnits="userSpaceOnUse">
<stop stop-color="#F0070C"/>
<stop offset="0.526" stop-color="#CC26D5"/>
<stop offset="1" stop-color="#7702FF"/>
</linearGradient>
<linearGradient id="paint12_linear_492_1235" x1="0" y1="51.7976" x2="247.417" y2="51.7976" gradientUnits="userSpaceOnUse">
<stop stop-color="#F0070C"/>
<stop offset="0.526" stop-color="#CC26D5"/>
<stop offset="1" stop-color="#7702FF"/>
</linearGradient>
<linearGradient id="paint13_linear_492_1235" x1="0" y1="51.7976" x2="247.417" y2="51.7976" gradientUnits="userSpaceOnUse">
<stop stop-color="#F0070C"/>
<stop offset="0.526" stop-color="#CC26D5"/>
<stop offset="1" stop-color="#7702FF"/>
</linearGradient>
<linearGradient id="paint14_linear_492_1235" x1="0" y1="51.7976" x2="247.417" y2="51.7976" gradientUnits="userSpaceOnUse">
<stop stop-color="#F0070C"/>
<stop offset="0.526" stop-color="#CC26D5"/>
<stop offset="1" stop-color="#7702FF"/>
</linearGradient>
</defs>
</svg>
